<svg xmlns="http://www.w3.org/2000/svg" width="500" height="140" viewBox="0 0 500 140"><g fill="none" fill-rule="evenodd"><g fill="#5200FF" fill-rule="nonzero" transform="translate(-120 -440)"><g transform="translate(120 440)"><rect width="20" height="20" x="320" y="80"/><rect width="20" height="20" x="340" y="100"/><rect width="20" height="20" x="360" y="120"/><rect width="40" height="20" x="300" y="80"/><rect width="20" height="40" x="340" y="40"/><rect width="40" height="20" x="340" y="40"/><rect width="40" height="20" x="120" y="40"/><rect width="80" height="20" x="100" y="80"/><rect width="60" height="20" x="120" y="120"/><rect width="40" height="20" x="240" y="120"/><rect width="80" height="20" x="200" y="40"/><rect width="20" height="60" x="100" y="60"/><rect width="20" height="40" x="160" y="60"/><g><rect width="60" height="20" x="20"/><rect width="40" height="20" x="20" y="60"/><rect width="60" height="20" y="120"/><rect width="20" height="40" y="20"/><rect width="20" height="40" x="60" y="80"/></g><rect width="60" height="20" x="420" y="40"/><rect width="80" height="20" x="420" y="120"/><rect width="20" height="60" x="400" y="60"/><rect width="20" height="100" x="460" y="40"/><rect width="20" height="120" x="220"/><rect width="20" height="140" x="300"/></g></g></g></svg>