<svg xmlns="http://www.w3.org/2000/svg" width="184" height="84" viewBox="0 0 184 84"><g fill="none" fill-rule="evenodd"><g transform="translate(-279 -195)"><g transform="translate(279 195)"><path fill="#373737" fill-rule="nonzero" d="M1,1 L1,83 L183,83 L183,1 L1,1 Z M0,0 L184,0 L184,84 L0,84 L0,0 Z"/><path fill="#373737" d="M20.6939996,19.864 L21.7499996,19.864 L21.7499996,37 L20.6939996,37 L20.6939996,19.864 Z M30.6739997,19.864 L31.9939997,19.864 L42.8179997,35.584 L42.8659997,35.584 L42.8659997,19.864 L43.9219997,19.864 L43.9219997,37 L42.6739997,37 L31.7779997,21.16 L31.7299997,21.16 L31.7299997,37 L30.6739997,37 L30.6739997,19.864 Z M57.9819998,36.088 L58.0299998,36.088 L63.9579998,19.864 L65.0139998,19.864 L58.6059998,37 L57.3819998,37 L50.9979998,19.864 L52.1019998,19.864 L57.9819998,36.088 Z M72.0899999,19.864 L73.1459999,19.864 L73.1459999,37 L72.0899999,37 L72.0899999,19.864 Z M93.254,24.76 C93.2219998,24.0239963 93.0660014,23.3840027 92.786,22.84 C92.5059986,22.2959973 92.1260024,21.8400018 91.646,21.472 C91.1659976,21.1039982 90.5940033,20.8280009 89.93,20.644 C89.2659966,20.4599991 88.5420039,20.368 87.758,20.368 C87.2779976,20.368 86.7620027,20.4239994 86.21,20.536 C85.6579972,20.6480006 85.1460023,20.8439986 84.674,21.124 C84.2019976,21.4040014 83.8140015,21.7799976 83.51,22.252 C83.2059984,22.7240024 83.054,23.3119965 83.054,24.016 C83.054,24.7040034 83.2219983,25.2639978 83.558,25.696 C83.8940016,26.1280022 84.3339972,26.4759987 84.878,26.74 C85.4220027,27.0040013 86.0459964,27.2159992 86.75,27.376 C87.4540035,27.5360008 88.1659964,27.6879993 88.886,27.832 C89.6220036,27.9760007 90.3379965,28.147999 91.034,28.348 C91.7300034,28.548001 92.3539972,28.8199983 92.906,29.164 C93.4580027,29.5080017 93.9019983,29.9559972 94.238,30.508 C94.5740016,31.0600028 94.742,31.7519958 94.742,32.584 C94.742,33.4800045 94.5500019,34.231997 94.166,34.84 C93.781998,35.448003 93.2980029,35.9439981 92.714,36.328 C92.129997,36.7120019 91.4820035,36.9879992 90.77,37.156 C90.0579964,37.3240008 89.3740032,37.408 88.718,37.408 C87.7099949,37.408 86.7660044,37.3000011 85.886,37.084 C85.0059956,36.8679989 84.2380032,36.5160024 83.582,36.028 C82.9259967,35.5399976 82.4100018,34.9120038 82.034,34.144 C81.6579981,33.3759962 81.4779999,32.4400055 81.494,31.336 L82.55,31.336 C82.5019997,32.2800047 82.6379984,33.0759968 82.958,33.724 C83.2780016,34.3720032 83.7219971,34.9039979 84.29,35.32 C84.8580028,35.7360021 85.5259961,36.0359991 86.294,36.22 C87.0620038,36.4040009 87.8699957,36.496 88.718,36.496 C89.2300025,36.496 89.777997,36.4320006 90.362,36.304 C90.9460029,36.1759994 91.4819975,35.9600015 91.97,35.656 C92.4580024,35.3519985 92.8659983,34.9520025 93.194,34.456 C93.5220016,33.9599975 93.686,33.3360038 93.686,32.584 C93.686,31.8639964 93.5180016,31.2760023 93.182,30.82 C92.8459983,30.3639977 92.4020027,29.9960014 91.85,29.716 C91.2979972,29.4359986 90.6740034,29.2120008 89.978,29.044 C89.2819965,28.8759992 88.5660036,28.7200007 87.83,28.576 C87.1099964,28.4319993 86.3980035,28.264001 85.694,28.072 C84.9899964,27.879999 84.3660027,27.6200016 83.822,27.292 C83.2779972,26.9639984 82.8380016,26.5400026 82.502,26.02 C82.1659983,25.4999974 81.998,24.8320041 81.998,24.016 C81.998,23.1999959 82.1699982,22.5000029 82.514,21.916 C82.8580017,21.3319971 83.3059972,20.8600018 83.858,20.5 C84.4100027,20.1399982 85.0299965,19.8760008 85.718,19.708 C86.4060034,19.5399992 87.0859966,19.456 87.758,19.456 C88.6540044,19.456 89.4899961,19.555999 90.266,19.756 C91.0420038,19.956001 91.721997,20.2679979 92.306,20.692 C92.8900029,21.1160021 93.3579982,21.6639966 93.71,22.336 C94.0620017,23.0080034 94.2619997,23.8159953 94.31,24.76 L93.254,24.76 Z M103.09,19.864 L104.146,19.864 L104.146,37 L103.09,37 L103.09,19.864 Z M113.07,19.864 L119.934,19.864 C120.958005,19.864 121.813997,19.9919987 122.502,20.248 C123.190004,20.5040013 123.741998,20.8399979 124.158,21.256 C124.574002,21.6720021 124.873999,22.1479973 125.058,22.684 C125.242001,23.2200027 125.334,23.7599973 125.334,24.304 C125.334,24.7680023 125.254001,25.2079979 125.094,25.624 C124.933999,26.0400021 124.706002,26.4079984 124.41,26.728 C124.113999,27.0480016 123.762002,27.3159989 123.354,27.532 C122.945998,27.7480011 122.494003,27.8879997 121.998,27.952 L122.046,28 C122.158001,27.9839999 122.421998,28.0319994 122.838,28.144 C123.254002,28.2560006 123.689998,28.4679984 124.146,28.78 C124.602002,29.0920016 125.009998,29.5239972 125.37,30.076 C125.730002,30.6280028 125.91,31.3359957 125.91,32.2 C125.91,32.9840039 125.766002,33.671997 125.478,34.264 C125.189999,34.856003 124.786003,35.355998 124.266,35.764 C123.745998,36.172002 123.118004,36.479999 122.382,36.688 C121.645996,36.896001 120.830005,37 119.934,37 L113.07,37 L113.07,19.864 Z M119.934,27.64 C121.390007,27.64 122.477997,27.3160032 123.198,26.668 C123.918004,26.0199968 124.278,25.1680053 124.278,24.112 C124.278,23.4879969 124.158001,22.9640021 123.918,22.54 C123.677999,22.1159979 123.358002,21.7720013 122.958,21.508 C122.557998,21.2439987 122.098003,21.0560006 121.578,20.944 C121.057998,20.8319994 120.510003,20.776 119.934,20.776 L114.126,20.776 L114.126,27.64 L119.934,27.64 Z M119.934,36.088 C121.470008,36.088 122.673996,35.7640032 123.546,35.116 C124.418005,34.4679968 124.854,33.4960065 124.854,32.2 C124.854,31.4639963 124.702002,30.8600024 124.398,30.388 C124.093999,29.9159976 123.706003,29.5440014 123.234,29.272 C122.761998,28.9999986 122.234003,28.8120005 121.65,28.708 C121.065997,28.6039995 120.494003,28.552 119.934,28.552 L114.126,28.552 L114.126,36.088 L119.934,36.088 Z M134.09,19.864 L135.146,19.864 L135.146,36.088 L144.866,36.088 L144.866,37 L134.09,37 L134.09,19.864 Z M151.99,19.864 L163.51,19.864 L163.51,20.776 L153.046,20.776 L153.046,27.64 L162.886,27.64 L162.886,28.552 L153.046,28.552 L153.046,36.088 L163.63,36.088 L163.63,37 L151.99,37 L151.99,19.864 Z"/><path fill="#902EE5" d="M106.864,57.432 C106.864,56.1839938 107.047998,55.0120055 107.416,53.916 C107.784002,52.8199945 108.315997,51.868004 109.012,51.06 C109.708003,50.251996 110.563995,49.6160023 111.58,49.152 C112.596005,48.6879977 113.743994,48.456 115.024,48.456 C116.032005,48.456 116.903996,48.5879987 117.64,48.852 C118.376004,49.1160013 118.995997,49.443998 119.5,49.836 C120.004003,50.228002 120.415998,50.6559977 120.736,51.12 C121.056002,51.5840023 121.299999,52.019998 121.468,52.428 C121.636001,52.836002 121.752,53.1879985 121.816,53.484 C121.88,53.7800015 121.912,53.9439998 121.912,53.976 L120.856,53.976 C120.743999,53.2559964 120.512002,52.6120028 120.16,52.044 C119.807998,51.4759972 119.368003,50.992002 118.84,50.592 C118.311997,50.191998 117.724003,49.888001 117.076,49.68 C116.427997,49.471999 115.744004,49.368 115.024,49.368 C113.903994,49.368 112.904004,49.5839978 112.024,50.016 C111.143996,50.4480022 110.400003,51.0279964 109.792,51.756 C109.183997,52.4840036 108.720002,53.3359951 108.4,54.312 C108.079998,55.2880049 107.92,56.3279945 107.92,57.432 C107.92,58.5360055 108.079998,59.5759951 108.4,60.552 C108.720002,61.5280049 109.183997,62.3799964 109.792,63.108 C110.400003,63.8360036 111.143996,64.4159978 112.024,64.848 C112.904004,65.2800022 113.903994,65.496 115.024,65.496 C115.856004,65.496 116.635996,65.3240017 117.364,64.98 C118.092004,64.6359983 118.727997,64.1800028 119.272,63.612 C119.816003,63.0439972 120.251998,62.3880037 120.58,61.644 C120.908002,60.8999963 121.096,60.128004 121.144,59.328 L122.2,59.328 C122.104,60.3520051 121.852002,61.2959957 121.444,62.16 C121.035998,63.0240043 120.516003,63.7719968 119.884,64.404 C119.251997,65.0360032 118.520004,65.5279982 117.688,65.88 C116.855996,66.2320018 115.968005,66.408 115.024,66.408 C113.743994,66.408 112.596005,66.1760023 111.58,65.712 C110.563995,65.2479977 109.708003,64.612004 109.012,63.804 C108.315997,62.995996 107.784002,62.0440055 107.416,60.948 C107.047998,59.8519945 106.864,58.6800062 106.864,57.432 Z M141.492,53.76 C141.46,53.0239963 141.304001,52.3840027 141.024,51.84 C140.743999,51.2959973 140.364002,50.8400018 139.884,50.472 C139.403998,50.1039982 138.832003,49.8280009 138.168,49.644 C137.503997,49.4599991 136.780004,49.368 135.996,49.368 C135.515998,49.368 135.000003,49.4239994 134.448,49.536 C133.895997,49.6480006 133.384002,49.8439986 132.912,50.124 C132.439998,50.4040014 132.052002,50.7799976 131.748,51.252 C131.443999,51.7240024 131.292,52.3119965 131.292,53.016 C131.292,53.7040034 131.459998,54.2639978 131.796,54.696 C132.132002,55.1280022 132.571997,55.4759987 133.116,55.74 C133.660003,56.0040013 134.283997,56.2159992 134.988,56.376 C135.692004,56.5360008 136.403996,56.6879993 137.124,56.832 C137.860004,56.9760007 138.575997,57.147999 139.272,57.348 C139.968004,57.548001 140.591997,57.8199983 141.144,58.164 C141.696003,58.5080017 142.139998,58.9559972 142.476,59.508 C142.812002,60.0600028 142.98,60.7519958 142.98,61.584 C142.98,62.4800045 142.788002,63.231997 142.404,63.84 C142.019998,64.448003 141.536003,64.9439981 140.952,65.328 C140.367997,65.7120019 139.720004,65.9879992 139.008,66.156 C138.295997,66.3240008 137.612003,66.408 136.956,66.408 C135.947995,66.408 135.004004,66.3000011 134.124,66.084 C133.243996,65.8679989 132.476003,65.5160024 131.82,65.028 C131.163997,64.5399976 130.648002,63.9120038 130.272,63.144 C129.895998,62.3759962 129.716,61.4400055 129.732,60.336 L130.788,60.336 C130.74,61.2800047 130.875998,62.0759968 131.196,62.724 C131.516002,63.3720032 131.959997,63.9039979 132.528,64.32 C133.096003,64.7360021 133.763996,65.0359991 134.532,65.22 C135.300004,65.4040009 136.107996,65.496 136.956,65.496 C137.468003,65.496 138.015997,65.4320006 138.6,65.304 C139.184003,65.1759994 139.719998,64.9600015 140.208,64.656 C140.696003,64.3519985 141.103998,63.9520025 141.432,63.456 C141.760002,62.9599975 141.924,62.3360038 141.924,61.584 C141.924,60.8639964 141.756002,60.2760023 141.42,59.82 C141.083998,59.3639977 140.640003,58.9960014 140.088,58.716 C139.535997,58.4359986 138.912004,58.2120008 138.216,58.044 C137.519997,57.8759992 136.804004,57.7200007 136.068,57.576 C135.347996,57.4319993 134.636004,57.264001 133.932,57.072 C133.227997,56.879999 132.604003,56.6200016 132.06,56.292 C131.515997,55.9639984 131.076002,55.5400026 130.74,55.02 C130.403998,54.4999974 130.236,53.8320041 130.236,53.016 C130.236,52.1999959 130.407998,51.5000029 130.752,50.916 C131.096002,50.3319971 131.543997,49.8600018 132.096,49.5 C132.648003,49.1399982 133.267997,48.8760008 133.956,48.708 C134.644004,48.5399992 135.323997,48.456 135.996,48.456 C136.892005,48.456 137.727996,48.555999 138.504,48.756 C139.280004,48.956001 139.959997,49.2679979 140.544,49.692 C141.128003,50.1160021 141.595998,50.6639966 141.948,51.336 C142.300002,52.0080034 142.5,52.8159953 142.548,53.76 L141.492,53.76 Z M162.512,53.76 C162.48,53.0239963 162.324002,52.3840027 162.044,51.84 C161.763999,51.2959973 161.384003,50.8400018 160.904,50.472 C160.423998,50.1039982 159.852004,49.8280009 159.188,49.644 C158.523997,49.4599991 157.800004,49.368 157.016,49.368 C156.535998,49.368 156.020003,49.4239994 155.468,49.536 C154.915997,49.6480006 154.404003,49.8439986 153.932,50.124 C153.459998,50.4040014 153.072002,50.7799976 152.768,51.252 C152.463999,51.7240024 152.312,52.3119965 152.312,53.016 C152.312,53.7040034 152.479999,54.2639978 152.816,54.696 C153.152002,55.1280022 153.591997,55.4759987 154.136,55.74 C154.680003,56.0040013 155.303997,56.2159992 156.008,56.376 C156.712004,56.5360008 157.423997,56.6879993 158.144,56.832 C158.880004,56.9760007 159.595997,57.147999 160.292,57.348 C160.988004,57.548001 161.611997,57.8199983 162.164,58.164 C162.716003,58.5080017 163.159999,58.9559972 163.496,59.508 C163.832002,60.0600028 164,60.7519958 164,61.584 C164,62.4800045 163.808002,63.231997 163.424,63.84 C163.039998,64.448003 162.556003,64.9439981 161.972,65.328 C161.387997,65.7120019 160.740004,65.9879992 160.028,66.156 C159.315997,66.3240008 158.632003,66.408 157.976,66.408 C156.967995,66.408 156.024005,66.3000011 155.144,66.084 C154.263996,65.8679989 153.496003,65.5160024 152.84,65.028 C152.183997,64.5399976 151.668002,63.9120038 151.292,63.144 C150.915998,62.3759962 150.736,61.4400055 150.752,60.336 L151.808,60.336 C151.76,61.2800047 151.895999,62.0759968 152.216,62.724 C152.536002,63.3720032 152.979997,63.9039979 153.548,64.32 C154.116003,64.7360021 154.783996,65.0359991 155.552,65.22 C156.320004,65.4040009 157.127996,65.496 157.976,65.496 C158.488003,65.496 159.035997,65.4320006 159.62,65.304 C160.204003,65.1759994 160.739998,64.9600015 161.228,64.656 C161.716003,64.3519985 162.123999,63.9520025 162.452,63.456 C162.780002,62.9599975 162.944,62.3360038 162.944,61.584 C162.944,60.8639964 162.776002,60.2760023 162.44,59.82 C162.103999,59.3639977 161.660003,58.9960014 161.108,58.716 C160.555997,58.4359986 159.932004,58.2120008 159.236,58.044 C158.539997,57.8759992 157.824004,57.7200007 157.088,57.576 C156.367997,57.4319993 155.656004,57.264001 154.952,57.072 C154.247997,56.879999 153.624003,56.6200016 153.08,56.292 C152.535997,55.9639984 152.096002,55.5400026 151.76,55.02 C151.423999,54.4999974 151.256,53.8320041 151.256,53.016 C151.256,52.1999959 151.427998,51.5000029 151.772,50.916 C152.116002,50.3319971 152.563997,49.8600018 153.116,49.5 C153.668003,49.1399982 154.287997,48.8760008 154.976,48.708 C155.664004,48.5399992 156.343997,48.456 157.016,48.456 C157.912005,48.456 158.747996,48.555999 159.524,48.756 C160.300004,48.956001 160.979997,49.2679979 161.564,49.692 C162.148003,50.1160021 162.615998,50.6639966 162.968,51.336 C163.320002,52.0080034 163.52,52.8159953 163.568,53.76 L162.512,53.76 Z"/></g></g></g></svg>