<svg xmlns="http://www.w3.org/2000/svg" width="183" height="105" viewBox="0 0 183 105"><g fill="none" fill-rule="evenodd"><g transform="translate(-62 -213)"><g transform="translate(62 213)"><path fill="#373737" fill-rule="nonzero" d="M2,2 L2,103 L181,103 L181,2 L2,2 Z M0,0 L183,0 L183,105 L0,105 L0,0 Z"/><rect width="3" height="3" x="103" y="90" fill="#000" fill-rule="nonzero"/><rect width="3" height="3" x="90" y="90" fill="#000" fill-rule="nonzero"/><rect width="3" height="3" x="77" y="90" fill="#000" fill-rule="nonzero"/><rect width="3" height="3" x="64" y="90" fill="#000" fill-rule="nonzero"/><rect width="3" height="3" x="51" y="90" fill="#000" fill-rule="nonzero"/><rect width="3" height="3" x="38" y="90" fill="#000" fill-rule="nonzero"/><rect width="3" height="3" x="25" y="90" fill="#000" fill-rule="nonzero"/><rect width="3" height="3" x="12" y="90" fill="#000" fill-rule="nonzero"/><rect width="3" height="3" x="103" y="77" fill="#000" fill-rule="nonzero"/><rect width="3" height="3" x="90" y="77" fill="#000" fill-rule="nonzero"/><rect width="3" height="3" x="77" y="77" fill="#000" fill-rule="nonzero"/><rect width="3" height="3" x="64" y="77" fill="#000" fill-rule="nonzero"/><rect width="3" height="3" x="51" y="77" fill="#000" fill-rule="nonzero"/><rect width="3" height="3" x="38" y="77" fill="#000" fill-rule="nonzero"/><rect width="3" height="3" x="25" y="77" fill="#000" fill-rule="nonzero"/><rect width="3" height="3" x="12" y="77" fill="#000" fill-rule="nonzero"/><rect width="3" height="3" x="129" y="64" fill="#000" fill-rule="nonzero"/><rect width="3" height="3" x="116" y="64" fill="#000" fill-rule="nonzero"/><rect width="3" height="3" x="103" y="64" fill="#000" fill-rule="nonzero"/><rect width="3" height="3" x="90" y="64" fill="#000" fill-rule="nonzero"/><rect width="3" height="3" x="77" y="64" fill="#000" fill-rule="nonzero"/><rect width="3" height="3" x="64" y="64" fill="#000" fill-rule="nonzero"/><rect width="3" height="3" x="51" y="64" fill="#000" fill-rule="nonzero"/><rect width="3" height="3" x="38" y="64" fill="#000" fill-rule="nonzero"/><rect width="3" height="3" x="25" y="64" fill="#000" fill-rule="nonzero"/><rect width="3" height="3" x="12" y="64" fill="#000" fill-rule="nonzero"/><rect width="3" height="3" x="129" y="51" fill="#000" fill-rule="nonzero"/><rect width="3" height="3" x="116" y="51" fill="#000" fill-rule="nonzero"/><rect width="3" height="3" x="103" y="51" fill="#000" fill-rule="nonzero"/><rect width="3" height="3" x="90" y="51" fill="#000" fill-rule="nonzero"/><rect width="3" height="3" x="77" y="51" fill="#000" fill-rule="nonzero"/><rect width="3" height="3" x="64" y="51" fill="#000" fill-rule="nonzero"/><rect width="3" height="3" x="51" y="51" fill="#000" fill-rule="nonzero"/><rect width="3" height="3" x="38" y="51" fill="#000" fill-rule="nonzero"/><rect width="3" height="3" x="25" y="51" fill="#000" fill-rule="nonzero"/><rect width="3" height="3" x="12" y="51" fill="#000" fill-rule="nonzero"/><rect width="3" height="3" x="129" y="38" fill="#000" fill-rule="nonzero"/><rect width="3" height="3" x="116" y="38" fill="#000" fill-rule="nonzero"/><rect width="3" height="3" x="103" y="38" fill="#000" fill-rule="nonzero"/><rect width="3" height="3" x="90" y="38" fill="#000" fill-rule="nonzero"/><rect width="3" height="3" x="77" y="38" fill="#000" fill-rule="nonzero"/><rect width="3" height="3" x="64" y="38" fill="#000" fill-rule="nonzero"/><rect width="3" height="3" x="51" y="38" fill="#000" fill-rule="nonzero"/><rect width="3" height="3" x="38" y="38" fill="#000" fill-rule="nonzero"/><rect width="3" height="3" x="25" y="38" fill="#000" fill-rule="nonzero"/><rect width="3" height="3" x="12" y="38" fill="#000" fill-rule="nonzero"/><rect width="3" height="3" x="168" y="64" fill="#000" fill-rule="nonzero"/><rect width="3" height="3" x="155" y="64" fill="#000" fill-rule="nonzero"/><rect width="3" height="3" x="142" y="64" fill="#000" fill-rule="nonzero"/><rect width="3" height="3" x="168" y="51" fill="#000" fill-rule="nonzero"/><rect width="3" height="3" x="155" y="51" fill="#000" fill-rule="nonzero"/><rect width="3" height="3" x="142" y="51" fill="#000" fill-rule="nonzero"/><rect width="3" height="3" x="168" y="38" fill="#000" fill-rule="nonzero"/><rect width="3" height="3" x="155" y="38" fill="#000" fill-rule="nonzero"/><rect width="3" height="3" x="142" y="38" fill="#000" fill-rule="nonzero"/><path fill="#373737" d="M126.76,82.022 C126.525332,80.9073278 126.008337,80.0713361 125.209,79.514 C124.409663,78.9566639 123.460005,78.678 122.36,78.678 C121.421329,78.678 120.618337,78.8539982 119.951,79.206 C119.283663,79.5580018 118.733669,80.030997 118.301,80.625 C117.868331,81.219003 117.549334,81.8973295 117.344,82.66 C117.138666,83.4226705 117.036,84.2146626 117.036,85.036 C117.036,85.9306711 117.138666,86.7776627 117.344,87.577 C117.549334,88.3763373 117.868331,89.072997 118.301,89.667 C118.733669,90.261003 119.28733,90.7339982 119.962,91.086 C120.63667,91.4380018 121.443329,91.614 122.382,91.614 C123.071337,91.614 123.683664,91.5003345 124.219,91.273 C124.754336,91.0456655 125.216331,90.7303354 125.605,90.327 C125.993669,89.9236647 126.297999,89.4433361 126.518,88.886 C126.738001,88.3286639 126.87,87.7273366 126.914,87.082 L129.004,87.082 C128.798666,89.0620099 128.116672,90.6019945 126.958,91.702 C125.799328,92.8020055 124.215343,93.352 122.206,93.352 C120.988661,93.352 119.925338,93.1430021 119.016,92.725 C118.106662,92.3069979 117.351336,91.731337 116.75,90.998 C116.148664,90.264663 115.697668,89.3993383 115.397,88.402 C115.096332,87.4046617 114.946,86.3340057 114.946,85.19 C114.946,84.0459943 115.107332,82.9716717 115.43,81.967 C115.752668,80.9623283 116.225664,80.0860037 116.849,79.338 C117.472336,78.5899963 118.249662,77.9996688 119.181,77.567 C120.112338,77.1343312 121.179327,76.918 122.382,76.918 C123.203337,76.918 123.980663,77.0279989 124.714,77.248 C125.447337,77.4680011 126.099997,77.7906645 126.672,78.216 C127.244003,78.6413355 127.720665,79.1729968 128.102,79.811 C128.483335,80.4490032 128.732666,81.1859958 128.85,82.022 L126.76,82.022 Z M148.136,81.89 C148.018666,80.760661 147.61167,79.9430025 146.915,79.437 C146.21833,78.9309975 145.327339,78.678 144.242,78.678 C143.801998,78.678 143.369335,78.7219996 142.944,78.81 C142.518664,78.8980004 142.141001,79.0446656 141.811,79.25 C141.480998,79.4553344 141.217001,79.7303316 141.019,80.075 C140.820999,80.4196684 140.722,80.8486641 140.722,81.362 C140.722,81.8460024 140.864998,82.2383318 141.151,82.539 C141.437001,82.8396682 141.818331,83.0853324 142.295,83.276 C142.771669,83.4666676 143.310663,83.6243327 143.912,83.749 C144.513336,83.8736673 145.125663,84.0093326 145.749,84.156 C146.372336,84.3026674 146.984663,84.474999 147.586,84.673 C148.187336,84.871001 148.726331,85.138665 149.203,85.476 C149.679669,85.813335 150.060998,86.2386641 150.347,86.752 C150.633001,87.2653359 150.776,87.9106628 150.776,88.688 C150.776,89.5240042 150.589002,90.238997 150.215,90.833 C149.840998,91.427003 149.360669,91.9109981 148.774,92.285 C148.18733,92.6590019 147.531003,92.9303325 146.805,93.099 C146.078996,93.2676675 145.35667,93.352 144.638,93.352 C143.757995,93.352 142.92567,93.2420011 142.141,93.022 C141.356329,92.8019989 140.667003,92.4683356 140.073,92.021 C139.478997,91.5736644 139.009668,91.0016701 138.665,90.305 C138.320331,89.6083298 138.148,88.7833381 138.148,87.83 L140.128,87.83 C140.128,88.4900033 140.256332,89.0583309 140.513,89.535 C140.769668,90.011669 141.106998,90.4039985 141.525,90.712 C141.943002,91.0200015 142.430664,91.2473326 142.988,91.394 C143.545336,91.5406674 144.11733,91.614 144.704,91.614 C145.173335,91.614 145.646331,91.5700004 146.123,91.482 C146.599669,91.3939996 147.028665,91.2436677 147.41,91.031 C147.791335,90.8183323 148.099332,90.5286685 148.334,90.162 C148.568668,89.7953315 148.686,89.3260029 148.686,88.754 C148.686,88.2113306 148.543001,87.771335 148.257,87.434 C147.970998,87.096665 147.589669,86.8216677 147.113,86.609 C146.636331,86.3963323 146.097336,86.2240007 145.496,86.092 C144.894663,85.9599993 144.282336,85.824334 143.659,85.685 C143.035663,85.545666 142.423336,85.3843342 141.822,85.201 C141.220663,85.0176658 140.681669,84.7756682 140.205,84.475 C139.728331,84.1743318 139.347001,83.785669 139.061,83.309 C138.774998,82.8323309 138.632,82.2346703 138.632,81.516 C138.632,80.723996 138.793332,80.0383362 139.116,79.459 C139.438668,78.8796638 139.867664,78.4030019 140.403,78.029 C140.938336,77.6549981 141.546996,77.3763342 142.229,77.193 C142.911003,77.0096657 143.61133,76.918 144.33,76.918 C145.136671,76.918 145.884663,77.0133324 146.574,77.204 C147.263337,77.3946676 147.868331,77.6953313 148.389,78.106 C148.909669,78.5166687 149.320332,79.0336635 149.621,79.657 C149.921668,80.2803364 150.086666,81.0246623 150.116,81.89 L148.136,81.89 Z M169.842,81.89 C169.724666,80.760661 169.31767,79.9430025 168.621,79.437 C167.924329,78.9309975 167.033338,78.678 165.948,78.678 C165.507997,78.678 165.075335,78.7219996 164.65,78.81 C164.224664,78.8980004 163.847001,79.0446656 163.517,79.25 C163.186998,79.4553344 162.923001,79.7303316 162.725,80.075 C162.526999,80.4196684 162.428,80.8486641 162.428,81.362 C162.428,81.8460024 162.570998,82.2383318 162.857,82.539 C163.143001,82.8396682 163.524331,83.0853324 164.001,83.276 C164.477669,83.4666676 165.016663,83.6243327 165.618,83.749 C166.219336,83.8736673 166.831663,84.0093326 167.455,84.156 C168.078336,84.3026674 168.690663,84.474999 169.292,84.673 C169.893336,84.871001 170.432331,85.138665 170.909,85.476 C171.385669,85.813335 171.766998,86.2386641 172.053,86.752 C172.339001,87.2653359 172.482,87.9106628 172.482,88.688 C172.482,89.5240042 172.295001,90.238997 171.921,90.833 C171.546998,91.427003 171.066669,91.9109981 170.48,92.285 C169.89333,92.6590019 169.237003,92.9303325 168.511,93.099 C167.784996,93.2676675 167.06267,93.352 166.344,93.352 C165.463995,93.352 164.63167,93.2420011 163.847,93.022 C163.062329,92.8019989 162.373003,92.4683356 161.779,92.021 C161.184997,91.5736644 160.715668,91.0016701 160.371,90.305 C160.026331,89.6083298 159.854,88.7833381 159.854,87.83 L161.834,87.83 C161.834,88.4900033 161.962332,89.0583309 162.219,89.535 C162.475668,90.011669 162.812998,90.4039985 163.231,90.712 C163.649002,91.0200015 164.136663,91.2473326 164.694,91.394 C165.251336,91.5406674 165.82333,91.614 166.41,91.614 C166.879335,91.614 167.352331,91.5700004 167.829,91.482 C168.305669,91.3939996 168.734664,91.2436677 169.116,91.031 C169.497335,90.8183323 169.805332,90.5286685 170.04,90.162 C170.274667,89.7953315 170.392,89.3260029 170.392,88.754 C170.392,88.2113306 170.249001,87.771335 169.963,87.434 C169.676998,87.096665 169.295669,86.8216677 168.819,86.609 C168.342331,86.3963323 167.803336,86.2240007 167.202,86.092 C166.600663,85.9599993 165.988336,85.824334 165.365,85.685 C164.741663,85.545666 164.129336,85.3843342 163.528,85.201 C162.926663,85.0176658 162.387669,84.7756682 161.911,84.475 C161.434331,84.1743318 161.053001,83.785669 160.767,83.309 C160.480998,82.8323309 160.338,82.2346703 160.338,81.516 C160.338,80.723996 160.499331,80.0383362 160.822,79.459 C161.144668,78.8796638 161.573664,78.4030019 162.109,78.029 C162.644336,77.6549981 163.252996,77.3763342 163.935,77.193 C164.617003,77.0096657 165.317329,76.918 166.036,76.918 C166.84267,76.918 167.590663,77.0133324 168.28,77.204 C168.969336,77.3946676 169.57433,77.6953313 170.095,78.106 C170.615669,78.5166687 171.026331,79.0336635 171.327,79.657 C171.627668,80.2803364 171.792666,81.0246623 171.822,81.89 L169.842,81.89 Z"/><path fill="#373737" d="M12.804,12.292 L14.894,12.292 L14.894,28 L12.804,28 L12.804,12.292 Z M25.8419998,12.292 L28.0639998,12.292 L36.3359998,25.03 L36.3799998,25.03 L36.3799998,12.292 L38.3599998,12.292 L38.3599998,28 L36.0719998,28 L27.8659998,15.394 L27.8219998,15.394 L27.8219998,28 L25.8419998,28 L25.8419998,12.292 Z M55.3799996,28 L53.0039996,28 L47.4819996,12.292 L49.7259996,12.292 L54.2139996,25.91 L54.2579996,25.91 L58.7899996,12.292 L60.9679996,12.292 L55.3799996,28 Z M70.1779994,12.292 L72.2679994,12.292 L72.2679994,28 L70.1779994,28 L70.1779994,12.292 Z M92.3239992,16.89 C92.2066653,15.760661 91.7996694,14.9430025 91.1029992,14.437 C90.4063291,13.9309975 89.515338,13.678 88.4299992,13.678 C87.989997,13.678 87.5573347,13.7219996 87.1319992,13.81 C86.7066638,13.8980004 86.3290009,14.0446656 85.9989992,14.25 C85.6689976,14.4553344 85.4050002,14.7303316 85.2069992,15.075 C85.0089982,15.4196684 84.9099992,15.8486641 84.9099992,16.362 C84.9099992,16.8460024 85.0529978,17.2383318 85.3389992,17.539 C85.6250007,17.8396682 86.0063302,18.0853324 86.4829992,18.276 C86.9596683,18.4666676 87.4986629,18.6243327 88.0999992,18.749 C88.7013356,18.8736673 89.3136628,19.0093326 89.9369992,19.156 C90.5603357,19.3026674 91.1726629,19.474999 91.7739992,19.673 C92.3753356,19.871001 92.9143302,20.138665 93.3909992,20.476 C93.8676683,20.813335 94.2489978,21.2386641 94.5349992,21.752 C94.8210007,22.2653359 94.9639992,22.9106628 94.9639992,23.688 C94.9639992,24.5240042 94.7770011,25.238997 94.4029992,25.833 C94.0289974,26.427003 93.5486688,26.9109981 92.9619992,27.285 C92.3753296,27.6590019 91.7190029,27.9303325 90.9929992,28.099 C90.2669956,28.2676675 89.5446695,28.352 88.8259992,28.352 C87.9459948,28.352 87.1136698,28.2420011 86.3289992,28.022 C85.5443286,27.8019989 84.8550022,27.4683356 84.2609992,27.021 C83.6669963,26.5736644 83.1976676,26.0016701 82.8529992,25.305 C82.5083308,24.6083298 82.3359992,23.7833381 82.3359992,22.83 L84.3159992,22.83 C84.3159992,23.4900033 84.4443313,24.0583309 84.7009992,24.535 C84.9576672,25.0116691 85.2949971,25.4039985 85.7129992,25.712 C86.1310013,26.0200015 86.6186631,26.2473326 87.1759992,26.394 C87.7333354,26.5406674 88.3053296,26.614 88.8919992,26.614 C89.3613349,26.614 89.8343302,26.5700004 90.3109992,26.482 C90.7876683,26.3939996 91.216664,26.2436677 91.5979992,26.031 C91.9793345,25.8183323 92.2873314,25.5286685 92.5219992,25.162 C92.7566671,24.7953315 92.8739992,24.3260029 92.8739992,23.754 C92.8739992,23.2113306 92.7310007,22.771335 92.4449992,22.434 C92.1589978,22.096665 91.7776683,21.8216677 91.3009992,21.609 C90.8243302,21.3963323 90.2853356,21.2240007 89.6839992,21.092 C89.0826629,20.9599993 88.4703357,20.824334 87.8469992,20.685 C87.2236628,20.545666 86.6113356,20.3843343 86.0099992,20.201 C85.4086629,20.0176657 84.8696683,19.7756682 84.3929992,19.475 C83.9163302,19.1743318 83.5350007,18.7856691 83.2489992,18.309 C82.9629978,17.8323309 82.8199992,17.2346703 82.8199992,16.516 C82.8199992,15.723996 82.981331,15.0383362 83.3039992,14.459 C83.6266675,13.8796638 84.0556632,13.4030019 84.5909992,13.029 C85.1263352,12.6549981 85.7349958,12.3763343 86.4169992,12.193 C87.0990026,12.0096657 87.799329,11.918 88.5179992,11.918 C89.3246699,11.918 90.0726625,12.0133324 90.7619992,12.204 C91.451336,12.3946676 92.05633,12.6953313 92.5769992,13.106 C93.0976685,13.5166687 93.5083311,14.0336635 93.8089992,14.657 C94.1096674,15.2803365 94.2746658,16.0246623 94.3039992,16.89 L92.3239992,16.89 Z M105.031999,12.292 L107.121999,12.292 L107.121999,28 L105.031999,28 L105.031999,12.292 Z M120.181999,19.046 L124.361999,19.046 C125.550005,19.046 126.40433,18.8370021 126.924999,18.419 C127.445668,18.0009979 127.705999,17.3740042 127.705999,16.538 C127.705999,15.9806639 127.618,15.5406683 127.441999,15.218 C127.265998,14.8953317 127.024,14.6460009 126.715999,14.47 C126.407997,14.2939991 126.052334,14.1803336 125.648999,14.129 C125.245664,14.0776664 124.816668,14.052 124.361999,14.052 L120.181999,14.052 L120.181999,19.046 Z M118.091999,12.292 L123.789999,12.292 C124.127334,12.292 124.49033,12.2956666 124.878999,12.303 C125.267667,12.3103334 125.652664,12.3323332 126.033999,12.369 C126.415334,12.4056668 126.770997,12.4606663 127.100999,12.534 C127.431001,12.6073337 127.713331,12.7173326 127.947999,12.864 C128.461335,13.1720015 128.897664,13.5973306 129.256999,14.14 C129.616334,14.6826694 129.795999,15.349996 129.795999,16.142 C129.795999,16.9780042 129.594334,17.7003303 129.190999,18.309 C128.787664,18.9176697 128.212003,19.3686652 127.463999,19.662 L127.463999,19.706 C128.432004,19.9113344 129.172663,20.35133 129.685999,21.026 C130.199335,21.70067 130.455999,22.5219952 130.455999,23.49 C130.455999,24.0620029 130.353333,24.6193306 130.147999,25.162 C129.942664,25.7046694 129.638334,26.1849979 129.234999,26.603 C128.831664,27.0210021 128.333002,27.3583321 127.738999,27.615 C127.144996,27.8716679 126.459336,28 125.681999,28 L118.091999,28 L118.091999,12.292 Z M120.181999,26.24 L125.417999,26.24 C126.342003,26.24 127.06433,25.9906692 127.584999,25.492 C128.105668,24.9933308 128.365999,24.3040044 128.365999,23.424 C128.365999,22.9106641 128.270666,22.485335 128.079999,22.148 C127.889331,21.810665 127.636334,21.543001 127.320999,21.345 C127.005664,21.146999 126.642668,21.0076671 126.231999,20.927 C125.82133,20.8463329 125.396001,20.806 124.955999,20.806 L120.181999,20.806 L120.181999,26.24 Z M140.611999,12.292 L142.701999,12.292 L142.701999,26.24 L151.017999,26.24 L151.017999,28 L140.611999,28 L140.611999,12.292 Z M160.293998,12.292 L171.139998,12.292 L171.139998,14.052 L162.383998,14.052 L162.383998,19.046 L170.545998,19.046 L170.545998,20.806 L162.383998,20.806 L162.383998,26.24 L171.205998,26.24 L171.205998,28 L160.293998,28 L160.293998,12.292 Z"/></g></g></g></svg>