<svg xmlns="http://www.w3.org/2000/svg" width="180" height="104" viewBox="0 0 180 104"><g fill="none" fill-rule="evenodd"><g fill="#373737" transform="translate(-265 -59)"><g transform="translate(265 59)"><path fill-rule="nonzero" d="M2,2 L2,102 L178,102 L178,2 L2,2 Z M0,0 L180,0 L180,104 L0,104 L0,0 Z"/><path d="M22.5857504,22.006 L24.5807504,22.006 L24.5807504,37 L22.5857504,37 L22.5857504,22.006 Z M33.0822503,22.006 L35.2032503,22.006 L43.0992503,34.165 L43.1412503,34.165 L43.1412503,22.006 L45.0312503,22.006 L45.0312503,37 L42.8472503,37 L35.0142503,24.967 L34.9722503,24.967 L34.9722503,37 L33.0822503,37 L33.0822503,22.006 Z M59.3287502,37 L57.0607502,37 L51.7897502,22.006 L53.9317502,22.006 L58.2157502,35.005 L58.2577502,35.005 L62.5837502,22.006 L64.6627502,22.006 L59.3287502,37 Z M71.5052501,22.006 L73.5002501,22.006 L73.5002501,37 L71.5052501,37 L71.5052501,22.006 Z M90.69575,26.395 C90.5837495,25.3169946 90.1952534,24.5365024 89.53025,24.0535 C88.8652467,23.5704976 88.0147552,23.329 86.97875,23.329 C86.5587479,23.329 86.1457521,23.3709996 85.73975,23.455 C85.333748,23.5390004 84.9732516,23.678999 84.65825,23.875 C84.3432485,24.071001 84.091251,24.3334984 83.90225,24.6625 C83.7132491,24.9915016 83.61875,25.4009975 83.61875,25.891 C83.61875,26.3530023 83.7552487,26.7274986 84.02825,27.0145 C84.3012514,27.3015014 84.6652478,27.5359991 85.12025,27.718 C85.5752523,27.9000009 86.0897472,28.0504994 86.66375,28.1695 C87.2377529,28.2885006 87.8222471,28.4179993 88.41725,28.558 C89.012253,28.6980007 89.5967472,28.8624991 90.17075,29.0515 C90.7447529,29.2405009 91.2592478,29.4959984 91.71425,29.818 C92.1692523,30.1400016 92.5332487,30.5459975 92.80625,31.036 C93.0792514,31.5260025 93.21575,32.1419963 93.21575,32.884 C93.21575,33.682004 93.0372518,34.3644972 92.68025,34.9315 C92.3232483,35.4985028 91.8647528,35.9604982 91.30475,36.3175 C90.7447472,36.6745018 90.1182535,36.9334992 89.42525,37.0945 C88.7322466,37.2555008 88.0427535,37.336 87.35675,37.336 C86.5167458,37.336 85.7222538,37.2310011 84.97325,37.021 C84.2242463,36.8109989 83.5662529,36.4925021 82.99925,36.0655 C82.4322472,35.6384979 81.9842517,35.0925033 81.65525,34.4275 C81.3262484,33.7624967 81.16175,32.9750046 81.16175,32.065 L83.05175,32.065 C83.05175,32.6950031 83.1742488,33.2374977 83.41925,33.6925 C83.6642513,34.1475023 83.9862481,34.5219985 84.38525,34.816 C84.784252,35.1100015 85.2497474,35.3269993 85.78175,35.467 C86.3137527,35.6070007 86.8597472,35.677 87.41975,35.677 C87.8677523,35.677 88.3192478,35.6350004 88.77425,35.551 C89.2292523,35.4669996 89.6387482,35.323501 90.00275,35.1205 C90.3667519,34.917499 90.6607489,34.6410018 90.88475,34.291 C91.1087512,33.9409982 91.22075,33.4930027 91.22075,32.947 C91.22075,32.4289974 91.0842514,32.0090016 90.81125,31.687 C90.5382487,31.3649984 90.1742523,31.102501 89.71925,30.8995 C89.2642478,30.696499 88.7497529,30.5320006 88.17575,30.406 C87.6017472,30.2799994 87.017253,30.1505007 86.42225,30.0175 C85.8272471,29.8844993 85.2427529,29.7305009 84.66875,29.5555 C84.0947472,29.3804991 83.5802523,29.1495014 83.12525,28.8625 C82.6702478,28.5754986 82.3062514,28.2045023 82.03325,27.7495 C81.7602487,27.2944977 81.62375,26.7240034 81.62375,26.038 C81.62375,25.2819962 81.7777485,24.6275028 82.08575,24.0745 C82.3937516,23.5214972 82.8032475,23.0665018 83.31425,22.7095 C83.8252526,22.3524982 84.4062468,22.0865009 85.05725,21.9115 C85.7082533,21.7364991 86.3767466,21.649 87.06275,21.649 C87.8327539,21.649 88.5467468,21.7399991 89.20475,21.922 C89.8627533,22.1040009 90.4402476,22.390998 90.93725,22.783 C91.4342525,23.175002 91.8262486,23.668497 92.11325,24.2635 C92.4002515,24.858503 92.5577499,25.5689959 92.58575,26.395 L90.69575,26.395 Z M100.87725,22.006 L102.87225,22.006 L102.87225,37 L100.87725,37 L100.87725,22.006 Z M113.38975,28.453 L117.37975,28.453 C118.513756,28.453 119.329247,28.253502 119.82625,27.8545 C120.323252,27.455498 120.57175,26.857004 120.57175,26.059 C120.57175,25.5269973 120.487751,25.1070015 120.31975,24.799 C120.151749,24.4909985 119.920751,24.2530008 119.62675,24.085 C119.332748,23.9169992 118.993252,23.8085002 118.60825,23.7595 C118.223248,23.7104998 117.813752,23.686 117.37975,23.686 L113.38975,23.686 L113.38975,28.453 Z M111.39475,22.006 L116.83375,22.006 C117.155751,22.006 117.502248,22.0095 117.87325,22.0165 C118.244252,22.0235 118.611748,22.0444998 118.97575,22.0795 C119.339752,22.1145002 119.679248,22.1669996 119.99425,22.237 C120.309251,22.3070003 120.578749,22.4119993 120.80275,22.552 C121.292752,22.8460015 121.709248,23.2519974 122.05225,23.77 C122.395252,24.2880026 122.56675,24.9249962 122.56675,25.681 C122.56675,26.479004 122.374252,27.1684971 121.98925,27.7495 C121.604248,28.3305029 121.054753,28.7609986 120.34075,29.041 L120.34075,29.083 C121.264754,29.279001 121.971747,29.6989968 122.46175,30.343 C122.951752,30.9870032 123.19675,31.7709954 123.19675,32.695 C123.19675,33.2410027 123.098751,33.7729974 122.90275,34.291 C122.706749,34.8090026 122.416252,35.267498 122.03125,35.6665 C121.646248,36.065502 121.170253,36.3874988 120.60325,36.6325 C120.036247,36.8775012 119.381754,37 118.63975,37 L111.39475,37 L111.39475,22.006 Z M113.38975,35.32 L118.38775,35.32 C119.269754,35.32 119.959247,35.0820024 120.45625,34.606 C120.953252,34.1299976 121.20175,33.4720042 121.20175,32.632 C121.20175,32.1419975 121.110751,31.7360016 120.92875,31.414 C120.746749,31.0919984 120.505251,30.8365009 120.20425,30.6475 C119.903248,30.4584991 119.556752,30.3255004 119.16475,30.2485 C118.772748,30.1714996 118.366752,30.133 117.94675,30.133 L113.38975,30.133 L113.38975,35.32 Z M130.94225,22.006 L132.93725,22.006 L132.93725,35.32 L140.87525,35.32 L140.87525,37 L130.94225,37 L130.94225,22.006 Z M147.78075,22.006 L158.13375,22.006 L158.13375,23.686 L149.77575,23.686 L149.77575,28.453 L157.56675,28.453 L157.56675,30.133 L149.77575,30.133 L149.77575,35.32 L158.19675,35.32 L158.19675,37 L147.78075,37 L147.78075,22.006 Z"/><path d="M119.18,72.521 C118.955999,71.4569947 118.462504,70.6590027 117.6995,70.127 C116.936496,69.5949973 116.030005,69.329 114.98,69.329 C114.083996,69.329 113.317503,69.4969983 112.6805,69.833 C112.043497,70.1690017 111.518502,70.6204972 111.1055,71.1875 C110.692498,71.7545028 110.388001,72.4019964 110.192,73.13 C109.995999,73.8580036 109.898,74.6139961 109.898,75.398 C109.898,76.2520043 109.995999,77.0604962 110.192,77.8235 C110.388001,78.5865038 110.692498,79.2514972 111.1055,79.8185 C111.518502,80.3855028 112.046997,80.8369983 112.691,81.173 C113.335003,81.5090017 114.104996,81.677 115.001,81.677 C115.659003,81.677 116.243497,81.5685011 116.7545,81.3515 C117.265503,81.1344989 117.706498,80.8335019 118.0775,80.4485 C118.448502,80.0634981 118.738999,79.6050027 118.949,79.073 C119.159001,78.5409973 119.285,77.9670031 119.327,77.351 L121.322,77.351 C121.125999,79.2410095 120.475006,80.7109947 119.369,81.761 C118.262994,82.8110052 116.75101,83.336 114.833,83.336 C113.670994,83.336 112.656004,83.136502 111.788,82.7375 C110.919996,82.338498 110.199003,81.7890035 109.625,81.089 C109.050997,80.3889965 108.620501,79.5630048 108.3335,78.611 C108.046499,77.6589952 107.903,76.6370055 107.903,75.545 C107.903,74.4529945 108.056998,73.4275048 108.365,72.4685 C108.673002,71.5094952 109.124497,70.6730036 109.7195,69.959 C110.314503,69.2449964 111.056496,68.6815021 111.9455,68.2685 C112.834504,67.8554979 113.852994,67.649 115.001,67.649 C115.785004,67.649 116.526996,67.7539989 117.227,67.964 C117.927003,68.1740011 118.549997,68.481998 119.096,68.888 C119.642003,69.294002 120.096998,69.801497 120.461,70.4105 C120.825002,71.019503 121.062999,71.722996 121.175,72.521 L119.18,72.521 Z M137.6355,72.395 C137.523499,71.3169946 137.135003,70.5365024 136.47,70.0535 C135.804997,69.5704976 134.954505,69.329 133.9185,69.329 C133.498498,69.329 133.085502,69.3709996 132.6795,69.455 C132.273498,69.5390004 131.913001,69.678999 131.598,69.875 C131.282998,70.071001 131.031001,70.3334984 130.842,70.6625 C130.652999,70.9915016 130.5585,71.4009975 130.5585,71.891 C130.5585,72.3530023 130.694999,72.7274986 130.968,73.0145 C131.241001,73.3015014 131.604998,73.5359991 132.06,73.718 C132.515002,73.9000009 133.029497,74.0504994 133.6035,74.1695 C134.177503,74.2885006 134.761997,74.4179993 135.357,74.558 C135.952003,74.6980007 136.536497,74.8624991 137.1105,75.0515 C137.684503,75.2405009 138.198998,75.4959984 138.654,75.818 C139.109002,76.1400016 139.472999,76.5459975 139.746,77.036 C140.019001,77.5260024 140.1555,78.1419963 140.1555,78.884 C140.1555,79.682004 139.977002,80.3644972 139.62,80.9315 C139.262998,81.4985028 138.804503,81.9604982 138.2445,82.3175 C137.684497,82.6745018 137.058003,82.9334992 136.365,83.0945 C135.671996,83.2555008 134.982503,83.336 134.2965,83.336 C133.456496,83.336 132.662004,83.2310011 131.913,83.021 C131.163996,82.8109989 130.506003,82.4925021 129.939,82.0655 C129.371997,81.6384979 128.924002,81.0925033 128.595,80.4275 C128.265998,79.7624967 128.1015,78.9750045 128.1015,78.065 L129.9915,78.065 C129.9915,78.6950032 130.113999,79.2374977 130.359,79.6925 C130.604001,80.1475023 130.925998,80.5219985 131.325,80.816 C131.724002,81.1100015 132.189497,81.3269993 132.7215,81.467 C133.253503,81.6070007 133.799497,81.677 134.3595,81.677 C134.807502,81.677 135.258998,81.6350004 135.714,81.551 C136.169002,81.4669996 136.578498,81.323501 136.9425,81.1205 C137.306502,80.917499 137.600499,80.6410018 137.8245,80.291 C138.048501,79.9409983 138.1605,79.4930027 138.1605,78.947 C138.1605,78.4289974 138.024001,78.0090016 137.751,77.687 C137.477999,77.3649984 137.114002,77.102501 136.659,76.8995 C136.203998,76.696499 135.689503,76.5320006 135.1155,76.406 C134.541497,76.2799994 133.957003,76.1505007 133.362,76.0175 C132.766997,75.8844993 132.182503,75.7305009 131.6085,75.5555 C131.034497,75.3804991 130.520002,75.1495014 130.065,74.8625 C129.609998,74.5754986 129.246001,74.2045023 128.973,73.7495 C128.699999,73.2944977 128.5635,72.7240034 128.5635,72.038 C128.5635,71.2819962 128.717498,70.6275028 129.0255,70.0745 C129.333501,69.5214972 129.742997,69.0665018 130.254,68.7095 C130.765002,68.3524982 131.345997,68.0865009 131.997,67.9115 C132.648003,67.7364991 133.316496,67.649 134.0025,67.649 C134.772504,67.649 135.486497,67.7399991 136.1445,67.922 C136.802503,68.1040009 137.379997,68.390998 137.877,68.783 C138.374002,69.175002 138.765998,69.668497 139.053,70.2635 C139.340001,70.858503 139.4975,71.5689959 139.5255,72.395 L137.6355,72.395 Z M156.406,72.395 C156.293999,71.3169946 155.905503,70.5365024 155.2405,70.0535 C154.575496,69.5704976 153.725005,69.329 152.689,69.329 C152.268998,69.329 151.856002,69.3709996 151.45,69.455 C151.043998,69.5390004 150.683501,69.678999 150.3685,69.875 C150.053498,70.071001 149.801501,70.3334984 149.6125,70.6625 C149.423499,70.9915016 149.329,71.4009975 149.329,71.891 C149.329,72.3530023 149.465498,72.7274986 149.7385,73.0145 C150.011501,73.3015014 150.375498,73.5359991 150.8305,73.718 C151.285502,73.9000009 151.799997,74.0504994 152.374,74.1695 C152.948003,74.2885006 153.532497,74.4179993 154.1275,74.558 C154.722503,74.6980007 155.306997,74.8624991 155.881,75.0515 C156.455003,75.2405009 156.969498,75.4959984 157.4245,75.818 C157.879502,76.1400016 158.243498,76.5459975 158.5165,77.036 C158.789501,77.5260024 158.926,78.1419963 158.926,78.884 C158.926,79.682004 158.747502,80.3644972 158.3905,80.9315 C158.033498,81.4985028 157.575003,81.9604982 157.015,82.3175 C156.454997,82.6745018 155.828503,82.9334992 155.1355,83.0945 C154.442496,83.2555008 153.753003,83.336 153.067,83.336 C152.226996,83.336 151.432504,83.2310011 150.6835,83.021 C149.934496,82.8109989 149.276503,82.4925021 148.7095,82.0655 C148.142497,81.6384979 147.694501,81.0925033 147.3655,80.4275 C147.036498,79.7624967 146.872,78.9750045 146.872,78.065 L148.762,78.065 C148.762,78.6950032 148.884499,79.2374977 149.1295,79.6925 C149.374501,80.1475023 149.696498,80.5219985 150.0955,80.816 C150.494502,81.1100015 150.959997,81.3269993 151.492,81.467 C152.024002,81.6070007 152.569997,81.677 153.13,81.677 C153.578002,81.677 154.029498,81.6350004 154.4845,81.551 C154.939502,81.4669996 155.348998,81.323501 155.713,81.1205 C156.077002,80.917499 156.370999,80.6410018 156.595,80.291 C156.819001,79.9409983 156.931,79.4930027 156.931,78.947 C156.931,78.4289974 156.794501,78.0090016 156.5215,77.687 C156.248498,77.3649984 155.884502,77.102501 155.4295,76.8995 C154.974498,76.696499 154.460003,76.5320006 153.886,76.406 C153.311997,76.2799994 152.727503,76.1505007 152.1325,76.0175 C151.537497,75.8844993 150.953003,75.7305009 150.379,75.5555 C149.804997,75.3804991 149.290502,75.1495014 148.8355,74.8625 C148.380498,74.5754986 148.016501,74.2045023 147.7435,73.7495 C147.470498,73.2944977 147.334,72.7240034 147.334,72.038 C147.334,71.2819962 147.487998,70.6275028 147.796,70.0745 C148.104001,69.5214972 148.513497,69.0665018 149.0245,68.7095 C149.535502,68.3524982 150.116497,68.0865009 150.7675,67.9115 C151.418503,67.7364991 152.086996,67.649 152.773,67.649 C153.543004,67.649 154.256997,67.7399991 154.915,67.922 C155.573003,68.1040009 156.150497,68.390998 156.6475,68.783 C157.144502,69.175002 157.536498,69.668497 157.8235,70.2635 C158.110501,70.858503 158.268,71.5689959 158.296,72.395 L156.406,72.395 Z"/></g></g></g></svg>